<?xml version="1.0" encoding="UTF-8"?>
<!DOCTYPE svg PUBLIC "-//W3C//DTD SVG 1.1//EN" "http://www.w3.org/Graphics/SVG/1.1/DTD/svg11.dtd">
<!-- Creator: CorelDRAW 2021 (64-Bit) -->
<svg xmlns="http://www.w3.org/2000/svg" xml:space="preserve" width="0.213728in" height="0.19587in" version="1.1" style="shape-rendering:geometricPrecision; text-rendering:geometricPrecision; image-rendering:optimizeQuality; fill-rule:evenodd; clip-rule:evenodd"
viewBox="0 0 40.39 37.01"
 xmlns:xlink="http://www.w3.org/1999/xlink"
 xmlns:xodm="http://www.corel.com/coreldraw/odm/2003">
 <defs>
  <style type="text/css">
   <![CDATA[
    .fil0 {fill:black;fill-rule:nonzero}
   ]]>
  </style>
 </defs>
 <g id="White">
  <metadata id="CorelCorpID_0Corel-Layer"/>
  <g id="_1544791997488">
   <g>
    <g>
     <path class="fil0" d="M35.95 5.94c0.78,-0.24 1.13,-0.86 1.13,-1.62 0,-0.92 -0.65,-1.78 -2.08,-1.78l-1.67 0 0 5.64 0.73 0 0 -2.1 1.16 0 1.19 2.1 0.81 0 -1.27 -2.24zm-0.92 -0.57l0 0 -0.97 0 0 -2.13 0.97 0c0.89,0 1.32,0.43 1.32,1.08 0,0.62 -0.4,1.05 -1.32,1.05z"/>
    </g>
    <path class="fil0" d="M38.85 1.57c-1.03,-1.03 -2.31,-1.57 -3.85,-1.57 -1.51,0 -2.79,0.53 -3.82,1.57 -1.01,1.03 -1.54,2.31 -1.54,3.85 0,1.54 0.53,2.81 1.54,3.85 1.03,1.03 2.31,1.56 3.82,1.56 1.54,0 2.81,-0.53 3.85,-1.56 1.01,-1.03 1.54,-2.31 1.54,-3.85 0,-1.54 -0.53,-2.81 -1.54,-3.85zm-0.58 7.14l0 0c-0.88,0.88 -1.94,1.3 -3.26,1.3 -1.3,0 -2.36,-0.42 -3.24,-1.3 -0.88,-0.9 -1.3,-1.96 -1.3,-3.29 0,-1.33 0.42,-2.39 1.3,-3.29 0.88,-0.88 1.94,-1.3 3.24,-1.3 1.33,0 2.39,0.42 3.26,1.3 0.87,0.9 1.3,1.96 1.3,3.29 0,1.33 -0.42,2.39 -1.3,3.29z"/>
   </g>
   <path class="fil0" d="M20.18 24.72l7.04 12.3 -6.14 0 -6.67 -11.5 -9.05 0 0 11.5 -5.36 0 0 -14.18c0,-1.46 1.22,-2.68 2.68,-2.68l13.12 0c3.33,0 6.06,-2.71 6.06,-6.06 0,-3.33 -2.73,-6.06 -6.06,-6.06l-10.44 0 0 2.68 -5.36 -5.36 5.36 -5.36 0 2.68 10.44 0c6.28,0 11.42,5.14 11.42,11.42 0,7.95 -7.04,10.62 -7.04,10.62z"/>
  </g>
 </g>
</svg>
