<?xml version="1.0" encoding="UTF-8"?>
<!DOCTYPE svg PUBLIC "-//W3C//DTD SVG 1.1//EN" "http://www.w3.org/Graphics/SVG/1.1/DTD/svg11.dtd">
<!-- Creator: CorelDRAW 2021 (64-Bit) -->
<svg xmlns="http://www.w3.org/2000/svg" xml:space="preserve" width="0.292268in" height="0.292268in" version="1.1" style="shape-rendering:geometricPrecision; text-rendering:geometricPrecision; image-rendering:optimizeQuality; fill-rule:evenodd; clip-rule:evenodd"
viewBox="0 0 75.05 75.05"
 xmlns:xlink="http://www.w3.org/1999/xlink"
 xmlns:xodm="http://www.corel.com/coreldraw/odm/2003">
 <defs>
  <style type="text/css">
   <![CDATA[
    .fil0 {fill:none}
    .fil1 {fill:#6457F9;fill-rule:nonzero;fill-opacity:0.109804}
   ]]>
  </style>
 </defs>
 <g id="White">
  <metadata id="CorelCorpID_0Corel-Layer"/>
  <g id="_2506776315136">
   <path class="fil0" d="M21.31 0.12l52.34 18.53c1.08,0.38 1.65,1.58 1.27,2.66l-18.53 52.34c-0.38,1.08 -1.58,1.65 -2.66,1.27l-52.34 -18.53c-1.08,-0.38 -1.65,-1.58 -1.27,-2.66l18.53 -52.34c0.38,-1.08 1.58,-1.65 2.66,-1.27z"/>
   <g>
    <g>
     <g>
      <path class="fil1" d="M63.4 28.57c1.11,0.04 1.84,-0.59 2.19,-1.56 0.42,-1.18 -0.02,-2.57 -1.85,-3.22l-2.14 -0.76 -2.56 7.22 0.93 0.33 0.95 -2.7 1.49 0.53 0.57 3.23 1.04 0.37 -0.61 -3.44zm-0.92 -1.14l0 0 -1.24 -0.44 0.97 -2.73 1.24 0.44c1.14,0.4 1.5,1.15 1.2,1.98 -0.28,0.79 -1,1.16 -2.17,0.75z"/>
     </g>
     <path class="fil1" d="M69.1 24.28c-0.86,-1.79 -2.25,-3.05 -4.22,-3.75 -1.94,-0.69 -3.81,-0.58 -5.6,0.27 -1.76,0.87 -3.02,2.26 -3.72,4.23 -0.7,1.97 -0.6,3.84 0.23,5.62 0.86,1.79 2.25,3.05 4.18,3.74 1.97,0.7 3.84,0.6 5.64,-0.26 1.76,-0.87 3.02,-2.26 3.72,-4.23 0.7,-1.97 0.6,-3.84 -0.23,-5.62zm-3.98 8.88l0 0c-1.52,0.72 -3.07,0.79 -4.77,0.18 -1.66,-0.59 -2.83,-1.61 -3.56,-3.13 -0.71,-1.55 -0.77,-3.1 -0.17,-4.8 0.6,-1.7 1.63,-2.87 3.16,-3.62 1.52,-0.72 3.07,-0.79 4.74,-0.2 1.7,0.6 2.86,1.63 3.59,3.14 0.71,1.55 0.77,3.1 0.17,4.8 -0.6,1.7 -1.63,2.87 -3.16,3.62z"/>
    </g>
    <path class="fil1" d="M34.69 45.47l3.44 18.95 -7.87 -2.79 -3.33 -17.75 -11.59 -4.1 -5.21 14.73 -6.86 -2.43 6.43 -18.16c0.66,-1.87 2.77,-2.88 4.65,-2.22l16.81 5.95c4.26,1.51 8.99,-0.72 10.51,-5.01 1.51,-4.26 -0.75,-9 -5.01,-10.51l-13.38 -4.74 -1.22 3.43 -4.43 -9.29 9.29 -4.43 -1.21 3.43 13.38 4.74c8.04,2.85 12.29,11.76 9.45,19.8 -3.6,10.18 -13.83,10.41 -13.83,10.41z"/>
   </g>
  </g>
 </g>
</svg>
