<?xml version="1.0" encoding="UTF-8"?>
<!DOCTYPE svg PUBLIC "-//W3C//DTD SVG 1.1//EN" "http://www.w3.org/Graphics/SVG/1.1/DTD/svg11.dtd">
<!-- Creator: CorelDRAW 2021 (64-Bit) -->
<svg xmlns="http://www.w3.org/2000/svg" xml:space="preserve" width="0.232496in" height="0.232496in" version="1.1" style="shape-rendering:geometricPrecision; text-rendering:geometricPrecision; image-rendering:optimizeQuality; fill-rule:evenodd; clip-rule:evenodd"
viewBox="0 0 47.01 47.01"
 xmlns:xlink="http://www.w3.org/1999/xlink"
 xmlns:xodm="http://www.corel.com/coreldraw/odm/2003">
 <defs>
  <style type="text/css">
   <![CDATA[
    .fil0 {fill:none}
    .fil1 {fill:#6457F9;fill-rule:nonzero}
   ]]>
  </style>
 </defs>
 <g id="White">
  <metadata id="CorelCorpID_0Corel-Layer"/>
  <rect class="fil0" width="47.01" height="47.01" rx="1.64" ry="1.64"/>
  <g id="_2508213829520">
   <g>
    <g>
     <path class="fil1" d="M40.37 10.06c0.84,-0.26 1.21,-0.92 1.21,-1.73 0,-0.98 -0.69,-1.91 -2.22,-1.91l-1.79 0 0 6.03 0.78 0 0 -2.25 1.24 0 1.27 2.25 0.87 0 -1.36 -2.4zm-0.98 -0.61l0 0 -1.04 0 0 -2.28 1.04 0c0.95,0 1.41,0.46 1.41,1.15 0,0.66 -0.43,1.13 -1.41,1.13z"/>
    </g>
    <path class="fil1" d="M43.47 5.38c-1.11,-1.11 -2.47,-1.68 -4.12,-1.68 -1.62,0 -2.98,0.57 -4.09,1.68 -1.08,1.11 -1.65,2.47 -1.65,4.12 0,1.65 0.57,3.01 1.65,4.12 1.11,1.11 2.47,1.67 4.09,1.67 1.65,0 3.01,-0.57 4.12,-1.67 1.08,-1.11 1.65,-2.47 1.65,-4.12 0,-1.65 -0.57,-3.01 -1.65,-4.12zm-0.62 7.64l0 0c-0.94,0.94 -2.07,1.39 -3.49,1.39 -1.39,0 -2.53,-0.45 -3.46,-1.39 -0.94,-0.96 -1.39,-2.1 -1.39,-3.52 0,-1.42 0.45,-2.55 1.39,-3.52 0.94,-0.94 2.07,-1.39 3.46,-1.39 1.42,0 2.55,0.45 3.49,1.39 0.94,0.96 1.39,2.1 1.39,3.52 0,1.42 -0.45,2.55 -1.39,3.52z"/>
   </g>
   <path class="fil1" d="M23.49 30.15l7.53 13.16 -6.57 0 -7.14 -12.31 -9.68 0 0 12.31 -5.73 0 0 -15.17c0,-1.56 1.3,-2.87 2.87,-2.87l14.04 0c3.56,0 6.49,-2.9 6.49,-6.49 0,-3.56 -2.92,-6.49 -6.49,-6.49l-11.18 0 0 2.87 -5.73 -5.73 5.73 -5.73 0 2.87 11.18 0c6.72,0 12.22,5.5 12.22,12.22 0,8.51 -7.53,11.36 -7.53,11.36z"/>
  </g>
 </g>
</svg>
