<?xml version="1.0" encoding="UTF-8"?>
<!DOCTYPE svg PUBLIC "-//W3C//DTD SVG 1.1//EN" "http://www.w3.org/Graphics/SVG/1.1/DTD/svg11.dtd">
<!-- Creator: CorelDRAW 2021 (64-Bit) -->
<svg xmlns="http://www.w3.org/2000/svg" xml:space="preserve" width="1.67905in" height="0.204457in" version="1.1" style="shape-rendering:geometricPrecision; text-rendering:geometricPrecision; image-rendering:optimizeQuality; fill-rule:evenodd; clip-rule:evenodd"
viewBox="0 0 1679.05 204.46"
 xmlns:xlink="http://www.w3.org/1999/xlink"
 xmlns:xodm="http://www.corel.com/coreldraw/odm/2003">
 <defs>
  <style type="text/css">
   <![CDATA[
    .fil0 {fill:#6457F9;fill-rule:nonzero}
   ]]>
  </style>
 </defs>
 <g id="White">
  <metadata id="CorelCorpID_0Corel-Layer"/>
  <g id="_2506784609392">
   <g>
    <g>
     <g>
      <g>
       <path class="fil0" d="M190.24 140.6c2.47,12.79 8.35,22.72 17.61,29.78 9.26,7.07 20.66,10.6 34.22,10.6 18.9,0 32.65,-6.96 41.24,-20.91l21.19 12.02c-13.94,21.58 -34.93,32.36 -63,32.36 -22.72,0 -41.19,-7.1 -55.41,-21.32 -14.23,-14.22 -21.34,-32.22 -21.34,-53.99 0,-21.56 6.97,-39.52 20.91,-53.83 13.94,-14.32 31.97,-21.48 54.12,-21.48 21,0 38.13,7.4 51.4,22.19 13.27,14.8 19.9,32.61 19.9,53.41 0,3.62 -0.28,7.34 -0.86,11.16l-119.98 0zm49.54 -63.29l0 0c-13.37,0 -24.44,3.78 -33.22,11.31 -8.79,7.55 -14.23,17.62 -16.32,30.22l95.65 0c-2.1,-13.55 -7.44,-23.87 -16.04,-30.93 -8.59,-7.06 -18.62,-10.6 -30.07,-10.6z"/>
       <path class="fil0" d="M497.05 53.83c16.04,0 29.02,5.2 38.94,15.6 9.93,10.41 14.89,24.48 14.89,42.24l0 89.06 -24.91 0 0 -88.2c0,-11.06 -2.87,-19.66 -8.59,-25.77 -5.72,-6.11 -13.37,-9.16 -22.91,-9.16 -10.69,0 -19.24,3.58 -25.63,10.74 -6.4,7.16 -9.59,18.09 -9.59,32.79l0 79.6 -24.91 0 0 -88.2c0,-11.06 -2.73,-19.66 -8.17,-25.77 -5.44,-6.11 -12.84,-9.16 -22.19,-9.16 -10.5,0 -19.24,3.62 -26.2,10.88 -6.97,7.26 -10.45,18.13 -10.45,32.65l0 79.6 -24.92 0 0 -143.18 24.92 0 0 19.18c9.74,-15.27 23.95,-22.9 42.67,-22.9 19.28,0 33.31,8.11 42.09,24.34 9.93,-16.23 24.92,-24.34 44.96,-24.34z"/>
       <path class="fil0" d="M707.3 57.56l24.91 0 0 143.18 -24.91 0 0 -24.62c-12.42,18.91 -30.46,28.34 -54.13,28.34 -20.04,0 -37.13,-7.3 -51.25,-21.9 -14.14,-14.61 -21.2,-32.41 -21.2,-53.41 0,-21 7.06,-38.8 21.2,-53.4 14.12,-14.61 31.21,-21.91 51.25,-21.91 23.67,0 41.71,9.45 54.13,28.36l0 -24.64zm-50.98 122.85l0 0c14.51,0 26.63,-4.91 36.37,-14.75 9.73,-9.83 14.61,-22 14.61,-36.51 0,-14.5 -4.87,-26.68 -14.61,-36.51 -9.74,-9.83 -21.86,-14.75 -36.37,-14.75 -14.32,0 -26.34,4.92 -36.08,14.75 -9.74,9.83 -14.6,22.01 -14.6,36.51 0,14.51 4.87,26.68 14.6,36.51 9.74,9.84 21.76,14.75 36.08,14.75z"/>
       <path class="fil0" d="M797.34 81.62c8.2,-17.76 23.1,-26.64 44.67,-26.64l0 26.06c-12.22,-0.57 -22.72,2.67 -31.5,9.73 -8.78,7.06 -13.17,18.43 -13.17,34.08l0 75.88 -24.92 0 0 -143.18 24.92 0 0 24.06z"/>
       <polygon class="fil0" points="988.19,200.74 957.26,200.74 891.97,132.95 891.97,200.74 867.06,200.74 867.06,0.28 891.97,0.28 891.97,120.59 953.82,57.56 985.9,57.56 917.46,126.85 "/>
       <path class="fil0" d="M1020.63 140.6c2.48,12.79 8.35,22.72 17.61,29.78 9.26,7.07 20.66,10.6 34.22,10.6 18.9,0 32.64,-6.96 41.24,-20.91l21.19 12.02c-13.94,21.58 -34.94,32.36 -63,32.36 -22.72,0 -41.19,-7.1 -55.41,-21.32 -14.23,-14.22 -21.34,-32.22 -21.34,-53.99 0,-21.56 6.97,-39.52 20.91,-53.83 13.93,-14.32 31.97,-21.48 54.12,-21.48 21,0 38.13,7.4 51.4,22.19 13.27,14.8 19.91,32.61 19.91,53.41 0,3.62 -0.29,7.34 -0.86,11.16l-119.98 0zm49.54 -63.29l0 0c-13.37,0 -24.44,3.78 -33.21,11.31 -8.79,7.55 -14.23,17.62 -16.33,30.22l95.65 0c-2.11,-13.55 -7.44,-23.87 -16.04,-30.93 -8.59,-7.06 -18.62,-10.6 -30.07,-10.6z"/>
       <path class="fil0" d="M1247.26 81.62l-38.08 0 0 77.6c0,7.06 1.39,12.07 4.15,15.03 2.76,2.96 7.01,4.49 12.74,4.59 5.73,0.1 12.8,-0.06 21.19,-0.43l0 22.33c-21.76,2.87 -37.7,1.11 -47.82,-5.3 -10.12,-6.39 -15.18,-18.47 -15.18,-36.22l0 -77.6 -28.35 0 0 -24.06 28.35 0 0 -32.64 24.92 -24.92 0 57.56 38.08 0 0 24.06z"/>
       <path class="fil0" d="M1290.85 140.6c2.48,12.79 8.35,22.72 17.61,29.78 9.26,7.07 20.66,10.6 34.22,10.6 18.9,0 32.64,-6.96 41.23,-20.91l21.19 12.02c-13.94,21.58 -34.94,32.36 -63,32.36 -22.72,0 -41.19,-7.1 -55.41,-21.32 -14.23,-14.22 -21.34,-32.22 -21.34,-53.99 0,-21.56 6.97,-39.52 20.91,-53.83 13.93,-14.32 31.97,-21.48 54.12,-21.48 21,0 38.13,7.4 51.4,22.19 13.27,14.8 19.91,32.61 19.91,53.41 0,3.62 -0.29,7.34 -0.86,11.16l-119.98 0zm49.54 -63.29l0 0c-13.37,0 -24.44,3.78 -33.22,11.31 -8.79,7.55 -14.22,17.62 -16.32,30.22l95.65 0c-2.11,-13.55 -7.45,-23.87 -16.04,-30.93 -8.59,-7.06 -18.62,-10.6 -30.07,-10.6z"/>
       <path class="fil0" d="M1561.48 0.28l24.92 0 0 200.46 -24.92 0 0 -24.62c-12.4,18.91 -30.45,28.34 -54.11,28.34 -20.05,0 -37.14,-7.3 -51.26,-21.9 -14.13,-14.61 -21.2,-32.41 -21.2,-53.41 0,-21 7.06,-38.8 21.2,-53.4 14.13,-14.61 31.21,-21.91 51.26,-21.91 23.66,0 41.71,9.45 54.11,28.36l0 -81.91zm-50.96 180.13l0 0c14.5,0 26.64,-4.91 36.37,-14.75 9.73,-9.83 14.6,-22 14.6,-36.51 0,-14.5 -4.87,-26.68 -14.6,-36.51 -9.73,-9.83 -21.87,-14.75 -36.37,-14.75 -14.32,0 -26.35,4.92 -36.08,14.75 -9.74,9.83 -14.61,22.01 -14.61,36.51 0,14.51 4.87,26.68 14.61,36.51 9.74,9.84 21.76,14.75 36.08,14.75z"/>
      </g>
     </g>
     <g>
      <g>
       <path class="fil0" d="M1655.55 175.43c4.14,-1.28 5.99,-4.57 5.99,-8.57 0,-4.85 -3.43,-9.42 -10.99,-9.42l-8.85 0 0 29.83 3.85 0 0 -11.13 6.14 0 6.28 11.13 4.28 0 -6.71 -11.85zm-4.85 -3l0 0 -5.14 0 0 -11.28 5.14 0c4.71,0 6.99,2.28 6.99,5.71 0,3.28 -2.14,5.57 -6.99,5.57z"/>
      </g>
      <path class="fil0" d="M1670.91 152.28c-5.48,-5.48 -12.21,-8.28 -20.35,-8.28 -8,0 -14.74,2.81 -20.21,8.28 -5.33,5.48 -8.15,12.21 -8.15,20.35 0,8.14 2.81,14.88 8.15,20.35 5.47,5.47 12.21,8.28 20.21,8.28 8.14,0 14.88,-2.81 20.35,-8.28 5.33,-5.48 8.14,-12.21 8.14,-20.35 0,-8.14 -2.81,-14.88 -8.14,-20.35zm-3.09 37.76l0 0c-4.63,4.63 -10.25,6.88 -17.27,6.88 -6.88,0 -12.49,-2.24 -17.13,-6.88 -4.63,-4.77 -6.88,-10.39 -6.88,-17.41 0,-7.02 2.24,-12.63 6.88,-17.41 4.63,-4.63 10.25,-6.88 17.13,-6.88 7.02,0 12.63,2.24 17.27,6.88 4.63,4.77 6.88,10.39 6.88,17.41 0,7.02 -2.25,12.63 -6.88,17.41z"/>
     </g>
    </g>
    <path class="fil0" d="M106.79 133.83l37.25 65.08 -32.51 0 -35.3 -60.85 -47.89 0 0 60.85 -28.35 0 0 -75.03c0,-7.73 6.44,-14.18 14.18,-14.18l69.44 0c17.61,0 32.07,-14.32 32.07,-32.07 0,-17.61 -14.46,-32.07 -32.07,-32.07l-55.27 0 0 14.18 -28.35 -28.35 28.35 -28.35 0 14.17 55.27 0c33.22,0 60.43,27.21 60.43,60.43 0,42.06 -37.25,56.19 -37.25,56.19z"/>
   </g>
  </g>
 </g>
</svg>
