<?xml version="1.0" encoding="UTF-8"?>
<!DOCTYPE svg PUBLIC "-//W3C//DTD SVG 1.1//EN" "http://www.w3.org/Graphics/SVG/1.1/DTD/svg11.dtd">
<!-- Creator: CorelDRAW -->
<svg xmlns="http://www.w3.org/2000/svg" xml:space="preserve" width="0.139843in" height="0.139843in" version="1.1" style="shape-rendering:geometricPrecision; text-rendering:geometricPrecision; image-rendering:optimizeQuality; fill-rule:evenodd; clip-rule:evenodd"
viewBox="0 0 7.33 7.33"
 xmlns:xlink="http://www.w3.org/1999/xlink"
 xmlns:xodm="http://www.corel.com/coreldraw/odm/2003">
 <defs>
  <style type="text/css">
   <![CDATA[
    .fil0 {fill:none}
    .fil1 {fill:#6457F9;fill-rule:nonzero}
   ]]>
  </style>
 </defs>
 <g id="White">
  <metadata id="CorelCorpID_0Corel-Layer"/>
  <circle class="fil0" cx="3.66" cy="3.66" r="3.66"/>
  <g id="_1216192431664">
   <g>
    <g>
     <path class="fil1" d="M5.88 2.14c0.09,-0.03 0.14,-0.1 0.14,-0.2 0,-0.11 -0.08,-0.22 -0.25,-0.22l-0.2 0 0 0.68 0.09 0 0 -0.25 0.14 0 0.14 0.25 0.1 0 -0.15 -0.27zm-0.11 -0.07l0 0 -0.12 0 0 -0.26 0.12 0c0.11,0 0.16,0.05 0.16,0.13 0,0.08 -0.05,0.13 -0.16,0.13z"/>
    </g>
    <path class="fil1" d="M6.23 1.62c-0.13,-0.13 -0.28,-0.19 -0.47,-0.19 -0.18,0 -0.34,0.06 -0.46,0.19 -0.12,0.13 -0.19,0.28 -0.19,0.47 0,0.19 0.06,0.34 0.19,0.47 0.13,0.13 0.28,0.19 0.46,0.19 0.19,0 0.34,-0.06 0.47,-0.19 0.12,-0.13 0.19,-0.28 0.19,-0.47 0,-0.19 -0.06,-0.34 -0.19,-0.47zm-0.07 0.86l0 0c-0.11,0.11 -0.23,0.16 -0.39,0.16 -0.16,0 -0.29,-0.05 -0.39,-0.16 -0.11,-0.11 -0.16,-0.24 -0.16,-0.4 0,-0.16 0.05,-0.29 0.16,-0.4 0.11,-0.11 0.23,-0.16 0.39,-0.16 0.16,0 0.29,0.05 0.39,0.16 0.11,0.11 0.16,0.24 0.16,0.4 0,0.16 -0.05,0.29 -0.16,0.4z"/>
   </g>
   <path class="fil1" d="M3.97 4.42l0.85 1.49 -0.74 0 -0.81 -1.39 -1.09 0 0 1.39 -0.65 0 0 -1.72c0,-0.18 0.15,-0.32 0.32,-0.32l1.59 0c0.4,0 0.73,-0.33 0.73,-0.73 0,-0.4 -0.33,-0.73 -0.73,-0.73l-1.26 0 0 0.32 -0.65 -0.65 0.65 -0.65 0 0.32 1.26 0c0.76,0 1.38,0.62 1.38,1.38 0,0.96 -0.85,1.28 -0.85,1.28z"/>
  </g>
 </g>
</svg>
